<svg xmlns="http://www.w3.org/2000/svg" viewBox="0 0 256 257">
  <defs>
    <linearGradient id="a" x1="-.828%" x2="57.636%" y1="7.652%" y2="78.411%">
      <stop stop-color="#41D1FF" offset="0%"/>
      <stop stop-color="#BD34FE" offset="100%"/>
    </linearGradient>
    <linearGradient id="b" x1="43.376%" x2="50.316%" y1="2.242%" y2="89.03%">
      <stop stop-color="#FFEA83" offset="0%"/>
      <stop stop-color="#FFDD35" offset="8.333%"/>
      <stop stop-color="#FFA800" offset="100%"/>
    </linearGradient>
  </defs>
  <path fill="url(#a)" d="M255.153 37.938L134.942 252.976c-2.483 4.44-8.862 4.466-11.383.046L.875 37.955c-2.746-4.731 1.29-10.5 6.62-9.673l120.58 18.49a6.54 6.54 0 002.2 0l117.37-18.24c5.31-.825 9.37 4.86 6.66 9.6z"/>
  <path fill="url(#b)" d="M185.432.063l-87.9 16.53a3.27 3.27 0 00-2.65 3.47l5.24 74.04a3.27 3.27 0 003.74 2.97l24.54-3.44c2.3-.32 4.3 1.5 4.06 3.8l-7.27 70.04c-.25 2.45 2.3 4.25 4.48 3.08l15.14-8.21a3.27 3.27 0 014.77 2.48l6.66 34.72c.52 2.72 4.24 3.12 5.36.57l1.06-2.38 53.74-166.99a3.27 3.27 0 00-3.76-4.2l-24.93 4.14c-2.2.37-4.17-1.5-3.86-3.71l4.86-34.49A3.27 3.27 0 00185.432.063z"/>
</svg>
<svg xmlns="http://www.w3.org/2000/svg" viewBox="0 0 256 257">
  <defs>
    <linearGradient id="a" x1="-.828%" x2="57.636%" y1="7.652%" y2="78.411%">
      <stop stop-color="#41D1FF" offset="0%"/>
      <stop stop-color="#BD34FE" offset="100%"/>
    </linearGradient>
    <linearGradient id="b" x1="43.376%" x2="50.316%" y1="2.242%" y2="89.03%">
      <stop stop-color="#FFEA83" offset="0%"/>
      <stop stop-color="#FFDD35" offset="8.333%"/>
      <stop stop-color="#FFA800" offset="100%"/>
    </linearGradient>
  </defs>
  <path fill="url(#a)" d="M255.153 37.938L134.942 252.976c-2.483 4.44-8.862 4.466-11.383.046L.875 37.955c-2.746-4.731 1.29-10.5 6.62-9.673l120.58 18.49a6.54 6.54 0 002.2 0l117.37-18.24c5.31-.825 9.37 4.86 6.66 9.6z"/>
  <path fill="url(#b)" d="M185.432.063l-87.9 16.53a3.27 3.27 0 00-2.65 3.47l5.24 74.04a3.27 3.27 0 003.74 2.97l24.54-3.44c2.3-.32 4.3 1.5 4.06 3.8l-7.27 70.04c-.25 2.45 2.3 4.25 4.48 3.08l15.14-8.21a3.27 3.27 0 014.77 2.48l6.66 34.72c.52 2.72 4.24 3.12 5.36.57l1.06-2.38 53.74-166.99a3.27 3.27 0 00-3.76-4.2l-24.93 4.14c-2.2.37-4.17-1.5-3.86-3.71l4.86-34.49A3.27 3.27 0 00185.432.063z"/>
</svg>


